<?xml version="1.0" encoding="UTF-8" standalone="no"?>
<svg
   viewBox="0 0 640 640"
   version="1.1"
   id="svg1"
   sodipodi:docname="docker-brands-solid-full.svg"
   inkscape:version="1.4.2 (ebf0e940d0, 2025-05-08)"
   xmlns:inkscape="http://www.inkscape.org/namespaces/inkscape"
   xmlns:sodipodi="http://sodipodi.sourceforge.net/DTD/sodipodi-0.dtd"
   xmlns="http://www.w3.org/2000/svg"
   xmlns:svg="http://www.w3.org/2000/svg">
  <defs
     id="defs1" />
  <sodipodi:namedview
     id="namedview1"
     pagecolor="#ffffff"
     bordercolor="#000000"
     borderopacity="0.25"
     inkscape:showpageshadow="2"
     inkscape:pageopacity="0.0"
     inkscape:pagecheckerboard="0"
     inkscape:deskcolor="#d1d1d1"
     inkscape:zoom="1.184375"
     inkscape:cx="328.44327"
     inkscape:cy="311.55673"
     inkscape:window-width="1728"
     inkscape:window-height="1011"
     inkscape:window-x="0"
     inkscape:window-y="0"
     inkscape:window-maximized="1"
     inkscape:current-layer="svg1" />
  <!--!Font Awesome Free 7.0.1 by @fontawesome - https://fontawesome.com License - https://fontawesome.com/license/free Copyright 2025 Fonticons, Inc.-->
  <path
     d="M349.9 300.3L283.8 300.3L283.8 240.9L349.9 240.9L349.9 300.3zM349.9 96L283.8 96L283.8 156.7L349.9 156.7L349.9 96zM428.1 240.8L362 240.8L362 300.2L428.1 300.2L428.1 240.8zM271.8 168.7L205.7 168.7L205.7 228.8L271.8 228.8L271.8 168.7zM349.9 168.7L283.8 168.7L283.8 228.8L349.9 228.8L349.9 168.7zM626.7 268.7C612.3 259 579.1 255.5 553.6 260.3C550.3 236.3 536.9 215.4 512.5 196.6L498.5 187.3L489.2 201.3C470.8 229.1 465.8 274.9 485.5 305.1C476.8 309.8 459.7 316.2 437.1 315.8L2.4 315.8C-6.3 366.6 8.2 432.6 46.4 477.9C83.5 521.8 139.1 544.1 211.8 544.1C369.2 544.1 485.7 471.6 540.2 339.9C561.6 340.3 607.8 340 631.5 294.7C633 292.2 638.1 281.5 640 277.6L626.7 268.7zM115.6 240.8L49.6 240.8L49.6 300.2L115.7 300.2L115.7 240.8L115.6 240.8zM193.7 240.8L127.6 240.8L127.6 300.2L193.7 300.2L193.7 240.8zM271.8 240.8L205.7 240.8L205.7 300.2L271.8 300.2L271.8 240.8zM193.7 168.7L127.6 168.7L127.6 228.8L193.7 228.8L193.7 168.7z"
     id="path1"
     style="fill:#ffffff" />
</svg>
