<?xml version="1.0" encoding="UTF-8" standalone="no"?>
<svg
   viewBox="0 0 640 640"
   version="1.1"
   id="svg1"
   sodipodi:docname="linkedin-brands-solid-full.svg"
   inkscape:version="1.4.2 (ebf0e940d0, 2025-05-08)"
   xmlns:inkscape="http://www.inkscape.org/namespaces/inkscape"
   xmlns:sodipodi="http://sodipodi.sourceforge.net/DTD/sodipodi-0.dtd"
   xmlns="http://www.w3.org/2000/svg"
   xmlns:svg="http://www.w3.org/2000/svg">
  <defs
     id="defs1" />
  <sodipodi:namedview
     id="namedview1"
     pagecolor="#ffffff"
     bordercolor="#000000"
     borderopacity="0.25"
     inkscape:showpageshadow="2"
     inkscape:pageopacity="0.0"
     inkscape:pagecheckerboard="0"
     inkscape:deskcolor="#d1d1d1"
     inkscape:zoom="1.184375"
     inkscape:cx="320"
     inkscape:cy="320"
     inkscape:window-width="1728"
     inkscape:window-height="1011"
     inkscape:window-x="0"
     inkscape:window-y="0"
     inkscape:window-maximized="1"
     inkscape:current-layer="svg1" />
  <!--!Font Awesome Free 7.0.1 by @fontawesome - https://fontawesome.com License - https://fontawesome.com/license/free Copyright 2025 Fonticons, Inc.-->
  <path
     d="M 512,96 H 127.9 C 110.3,96 96,110.5 96,128.3 v 383.4 c 0,17.8 14.3,32.3 31.9,32.3 H 512 c 17.6,0 32,-14.5 32,-32.3 V 128.3 C 544,110.5 529.6,96 512,96 Z M 231.4,480 H 165 V 266.2 h 66.5 V 480 Z M 198.2,160 c 21.3,0 38.5,17.2 38.5,38.5 0,21.3 -17.2,38.5 -38.5,38.5 -21.3,0 -38.5,-17.2 -38.5,-38.5 0,-21.3 17.2,-38.5 38.5,-38.5 z M 480.3,480 H 413.9 V 376 c 0,-24.8 -0.5,-56.7 -34.5,-56.7 -34.6,0 -39.9,27 -39.9,54.9 V 480 H 273.1 V 266.2 h 63.7 v 29.2 h 0.9 c 8.9,-16.8 30.6,-34.5 62.9,-34.5 67.2,0 79.7,44.3 79.7,101.9 z"
     id="path1"
     sodipodi:nodetypes="sssssssssccccccsssssccsssccccccssc"
     style="fill:#ffffff" />
</svg>
