<?xml version="1.0" encoding="UTF-8" standalone="no"?>
<svg
   version="1.1"
   id="Layer_1"
   x="0px"
   y="0px"
   viewBox="0 0 155.7 106"
   style="enable-background:new 0 0 155.7 106;"
   xml:space="preserve"
   sodipodi:docname="mysql.svg"
   inkscape:version="1.4.2 (ebf0e940d0, 2025-05-08)"
   xmlns:inkscape="http://www.inkscape.org/namespaces/inkscape"
   xmlns:sodipodi="http://sodipodi.sourceforge.net/DTD/sodipodi-0.dtd"
   xmlns="http://www.w3.org/2000/svg"
   xmlns:svg="http://www.w3.org/2000/svg"
   xmlns:ns="ns_sfw;"><defs
   id="defs10" /><sodipodi:namedview
   id="namedview10"
   pagecolor="#ffffff"
   bordercolor="#000000"
   borderopacity="0.25"
   inkscape:showpageshadow="2"
   inkscape:pageopacity="0.0"
   inkscape:pagecheckerboard="0"
   inkscape:deskcolor="#d1d1d1"
   inkscape:zoom="5.0564806"
   inkscape:cx="56.56108"
   inkscape:cy="52.210227"
   inkscape:window-width="1728"
   inkscape:window-height="1011"
   inkscape:window-x="0"
   inkscape:window-y="0"
   inkscape:window-maximized="1"
   inkscape:current-layer="g8" />
 <style
   type="text/css"
   id="style1">
  .st0{fill:#00758F;}
	.st1{fill:#F29111;}
	.st2{fill-rule:evenodd;clip-rule:evenodd;fill:#F29111;}
	.st3{fill-rule:evenodd;clip-rule:evenodd;fill:#00758F;}
 </style>
 <metadata
   id="metadata1">
  <ns:sfw>
   <ns:slices>
   </ns:slices>
   <ns:sliceSourceBounds
   bottomLeftOrigin="true"
   height="106"
   width="155.7"
   x="116.2"
   y="79.1">
   </ns:sliceSourceBounds>
  </ns:sfw>
 </metadata>
 <g
   transform="matrix(1.8189257,0,0,1.8237746,-82.14211,-64.843651)"
   id="g10">
  <g
   transform="matrix(1.2699241,0,0,-1.2699241,3.3662307,208.12494)"
   id="g9">
   <g
   transform="scale(0.1,0.1)"
   id="g8">
    
    
    
    
    
    
    <path
   class="st3"
   d="m 793.69924,1069.9881 c -15,0.4 -26.7,-1.1 -36.4,-5.3 -2.8,-1.1 -7.3,-1.1 -7.7,-4.7 1.5,-1.5 1.7,-3.9 3,-6 2.2,-3.8 6.2,-8.8 9.8,-11.4 3.9,-3 7.9,-6 12,-8.6 7.3,-4.5 15.6,-7.1 22.7,-11.6 4.1,-2.6 8.3,-6 12.4,-8.8 2.1,-1.5 3.4,-3.9 6,-4.9 v 0.6 c -1.3,1.7 -1.7,4.1 -3,6 -1.9,1.9 -3.8,3.6 -5.6,5.4 -5.4,7.3 -12.2,13.7 -19.5,19 -6,4.1 -19.2,9.8 -21.6,16.7 0,0 -0.2,0.2 -0.4,0.4 4.1,0.4 9,1.9 13,3 6.4,1.7 12.2,1.3 18.8,3 3,0.8 6,1.7 9,2.6 v 1.7 c -3.4,3.4 -5.8,7.9 -9.4,11.1 -9.6,8.3 -20.1,16.3 -31,23.1 -5.8,3.8 -13.3,6.2 -19.5,9.4 -2.2,1.1 -6,1.7 -7.3,3.6 -3.4,4.1 -5.3,9.6 -7.7,14.5 -5.4,10.3 -10.7,21.8 -15.4,32.7 -3.4,7.3 -5.4,14.6 -9.6,21.4 -19.3,31.9 -40.4,51.2 -72.6,70.2 -6.9,3.9 -15.2,5.6 -24,7.7 -4.7,0.2 -9.4,0.6 -14.1,0.7 -3,1.3 -6,4.9 -8.6,6.6 -10.7,6.8 -38.3,21.4 -46.2,2.1 -5.1,-12.2 7.5,-24.2 11.8,-30.4 3.2,-4.3 7.3,-9.2 9.6,-14.1 1.3,-3.2 1.7,-6.6 3,-10 3,-8.3 5.8,-17.5 9.8,-25.2 2.1,-3.9 4.3,-8.1 6.9,-11.6 1.5,-2.1 4.1,-3 4.7,-6.4 -2.6,-3.8 -2.8,-9.4 -4.3,-14.1 -6.8,-21.2 -4.1,-47.5 5.4,-63.1 3,-4.7 10.1,-15 19.7,-11.1 8.4,3.4 6.6,14.1 9,23.5 0.6,2.3 0.2,3.8 1.3,5.3 v -0.4 c 2.6,-5.2 5.3,-10.3 7.7,-15.6 5.8,-9.2 16,-18.8 24.4,-25.1 4.5,-3.4 8.1,-9.2 13.7,-11.3 v 0.6 h -0.4 c -1.1,1.7 -2.8,2.4 -4.3,3.7 -3.4,3.4 -7.1,7.5 -9.8,11.3 -7.9,10.5 -14.8,22.2 -21,34.2 -3,5.8 -5.6,12.2 -8.1,18 -1.1,2.2 -1.1,5.6 -3,6.8 -2.8,-4.1 -6.9,-7.7 -9,-12.7 -3.6,-8.1 -3.9,-18 -5.3,-28.4 -0.7,-0.2 -0.4,0 -0.7,-0.4 -6,1.5 -8.1,7.7 -10.3,12.9 -5.6,13.3 -6.6,34.7 -1.7,50.1 1.3,3.9 7,16.3 4.7,20.1 -1.1,3.6 -4.9,5.6 -6.9,8.5 -2.4,3.6 -5.1,8.1 -6.7,12 -4.5,10.5 -6.8,22.2 -11.6,32.7 -2.3,4.9 -6.2,10 -9.4,14.5 -3.6,5.1 -7.5,8.6 -10.3,14.6 -0.9,2.1 -2.2,5.5 -0.8,7.7 0.4,1.5 1.1,2.1 2.6,2.4 2.4,2.1 9.4,-0.6 11.8,-1.7 7,-2.8 12.8,-5.5 18.6,-9.4 2.6,-1.9 5.4,-5.4 8.8,-6.4 h 4 c 6,-1.3 12.8,-0.4 18.4,-2.1 9.9,-3.2 19,-7.9 27,-13 24.6,-15.6 44.9,-37.7 58.6,-64.2 2.3,-4.3 3.2,-8.3 5.3,-12.8 3.9,-9.2 8.8,-18.6 12.8,-27.6 3.9,-8.8 7.7,-17.8 13.3,-25.2 2.8,-3.9 14.1,-6 19.1,-8.1 3.7,-1.7 9.6,-3.2 13,-5.2 6.4,-3.9 12.8,-8.4 18.8,-12.8 2.8,-2.3 12.2,-7 12.7,-10.7"
   id="path7"
   style="fill:#ffffff">
    </path>
    <path
   class="st3"
   d="m 602.29924,1233.0881 c -3.2,0 -5.4,-0.4 -7.7,-0.9 v -0.4 h 0.4 c 1.5,-3 4.1,-5.1 6,-7.7 1.5,-3 2.8,-6 4.3,-9 0.2,0.2 0.4,0.4 0.4,0.4 2.6,1.9 4,4.9 4,9.4 -1.1,1.3 -1.3,2.6 -2.3,3.9 -1.2,1.9 -3.6,2.8 -5.1,4.3"
   id="path8"
   style="fill:#ffffff">
    </path>
   </g>
  </g>
 </g>
</svg>
