<?xml version="1.0" encoding="UTF-8" standalone="no"?>
<svg
   height="310px"
   preserveaspectratio="xMidYMid"
   version="1.1"
   viewBox="0 0 256 310"
   width="256px"
   id="svg1"
   sodipodi:docname="PyTorch_id5W5KzDd3_1.svg"
   inkscape:version="1.4.2 (ebf0e940d0, 2025-05-08)"
   xmlns:inkscape="http://www.inkscape.org/namespaces/inkscape"
   xmlns:sodipodi="http://sodipodi.sourceforge.net/DTD/sodipodi-0.dtd"
   xmlns="http://www.w3.org/2000/svg"
   xmlns:svg="http://www.w3.org/2000/svg">
  <defs
     id="defs1" />
  <sodipodi:namedview
     id="namedview1"
     pagecolor="#ffffff"
     bordercolor="#000000"
     borderopacity="0.25"
     inkscape:showpageshadow="2"
     inkscape:pageopacity="0.0"
     inkscape:pagecheckerboard="0"
     inkscape:deskcolor="#d1d1d1"
     inkscape:zoom="2.4451613"
     inkscape:cx="128.00792"
     inkscape:cy="155"
     inkscape:window-width="1728"
     inkscape:window-height="1011"
     inkscape:window-x="0"
     inkscape:window-y="0"
     inkscape:window-maximized="1"
     inkscape:current-layer="g1" />
  <g
     id="g1">
    <path
       d="M218.281037,90.106412 C268.572988,140.398363 268.572988,221.075034 218.281037,271.716235 C169.036835,322.008186 88.0109141,322.008186 37.7189632,271.716235 C-12.5729877,221.424284 -12.5729877,140.398363 37.7189632,90.106412 L127.825375,0 L127.825375,45.053206 L119.443383,53.4351978 L59.7216917,113.156889 C22.0027285,150.177353 22.0027285,210.946794 59.7216917,248.665757 C96.7421555,286.38472 157.511596,286.38472 195.230559,248.665757 C232.949523,211.645293 232.949523,150.875853 195.230559,113.156889 L218.281037,90.106412 Z M173.227831,84.5184175 C163.969338,84.5184175 156.463847,77.0129263 156.463847,67.7544338 C156.463847,58.4959413 163.969338,50.9904502 173.227831,50.9904502 C182.486323,50.9904502 189.991814,58.4959413 189.991814,67.7544338 C189.991814,77.0129263 182.486323,84.5184175 173.227831,84.5184175 Z"
       fill="#EE4C2C"
       id="path1"
       style="fill:#ffffff" />
  </g>
</svg>
