<?xml version="1.0" encoding="UTF-8" standalone="no"?>
<svg
   height="1499"
   viewBox=".15 .13 799.7 479.69"
   width="2500"
   version="1.1"
   id="svg1"
   sodipodi:docname="tailwind-css-2.svg"
   inkscape:version="1.4.2 (ebf0e940d0, 2025-05-08)"
   xmlns:inkscape="http://www.inkscape.org/namespaces/inkscape"
   xmlns:sodipodi="http://sodipodi.sourceforge.net/DTD/sodipodi-0.dtd"
   xmlns="http://www.w3.org/2000/svg"
   xmlns:svg="http://www.w3.org/2000/svg">
  <defs
     id="defs1" />
  <sodipodi:namedview
     id="namedview1"
     pagecolor="#505050"
     bordercolor="#eeeeee"
     borderopacity="1"
     inkscape:showpageshadow="0"
     inkscape:pageopacity="0"
     inkscape:pagecheckerboard="0"
     inkscape:deskcolor="#505050"
     inkscape:zoom="0.5004"
     inkscape:cx="1250"
     inkscape:cy="750.39968"
     inkscape:window-width="1350"
     inkscape:window-height="2332"
     inkscape:window-x="0"
     inkscape:window-y="0"
     inkscape:window-maximized="1"
     inkscape:current-layer="svg1" />
  <path
     d="m400 .13c-106.63 0-173.27 53.3-199.93 159.89 39.99-53.3 86.64-73.28 139.95-59.96 30.42 7.6 52.16 29.67 76.23 54.09 39.2 39.78 84.57 85.82 183.68 85.82 106.62 0 173.27-53.3 199.92-159.9-39.98 53.3-86.63 73.29-139.95 59.97-30.41-7.6-52.15-29.67-76.22-54.09-39.2-39.78-84.58-85.82-183.68-85.82zm-199.93 239.84c-106.62 0-173.27 53.3-199.92 159.9 39.98-53.3 86.63-73.29 139.95-59.96 30.41 7.61 52.15 29.67 76.22 54.08 39.2 39.78 84.58 85.83 183.68 85.83 106.63 0 173.27-53.3 199.93-159.9-39.99 53.3-86.64 73.29-139.95 59.96-30.42-7.59-52.16-29.67-76.23-54.08-39.2-39.78-84.57-85.83-183.68-85.83z"
     fill="#06b6d4"
     id="path1"
     style="fill:#ffffff" />
</svg>
